<mxfile host="65bd71144e">
    <diagram id="uCNuLNM1Efd8NcDHN-lh" name="Page-1">
        <mxGraphModel dx="2083" dy="1129" grid="1" gridSize="10" guides="1" tooltips="1" connect="1" arrows="1" fold="1" page="1" pageScale="1" pageWidth="827" pageHeight="1169" math="0" shadow="0">
            <root>
                <mxCell id="0"/>
                <mxCell id="1" parent="0"/>
                <mxCell id="90" value="SMTP" style="swimlane;" vertex="1" parent="1">
                    <mxGeometry x="1335" y="1040" width="200" height="110" as="geometry"/>
                </mxCell>
                <mxCell id="77" value="Email" style="rounded=0;whiteSpace=wrap;html=1;" vertex="1" parent="90">
                    <mxGeometry x="40" y="40" width="120" height="60" as="geometry"/>
                </mxCell>
                <mxCell id="97" value="Authorization service" style="swimlane;horizontal=0;" vertex="1" parent="1">
                    <mxGeometry x="50" y="150" width="610" height="260" as="geometry"/>
                </mxCell>
                <mxCell id="92" value="Auth" style="swimlane;" vertex="1" parent="97">
                    <mxGeometry x="44" y="20" width="550" height="160" as="geometry"/>
                </mxCell>
                <mxCell id="28" value="Account" style="rounded=0;whiteSpace=wrap;html=1;" vertex="1" parent="92">
                    <mxGeometry x="215" y="60" width="120" height="60" as="geometry"/>
                </mxCell>
                <mxCell id="29" value="Auth" style="rounded=0;whiteSpace=wrap;html=1;" vertex="1" parent="92">
                    <mxGeometry x="66" y="60" width="120" height="60" as="geometry"/>
                </mxCell>
                <mxCell id="30" value="" style="edgeStyle=orthogonalEdgeStyle;rounded=0;orthogonalLoop=1;jettySize=auto;html=1;" edge="1" parent="92" source="28" target="29">
                    <mxGeometry relative="1" as="geometry"/>
                </mxCell>
                <mxCell id="31" value="Account role" style="rounded=0;whiteSpace=wrap;html=1;" vertex="1" parent="92">
                    <mxGeometry x="360" y="60" width="120" height="60" as="geometry"/>
                </mxCell>
                <mxCell id="32" value="" style="edgeStyle=orthogonalEdgeStyle;rounded=0;orthogonalLoop=1;jettySize=auto;html=1;" edge="1" parent="92" source="28" target="31">
                    <mxGeometry relative="1" as="geometry"/>
                </mxCell>
                <mxCell id="130" value="Account updated" style="rounded=0;whiteSpace=wrap;html=1;strokeColor=#d79b00;dashed=1;dashPattern=1 1;fillColor=none;strokeWidth=3;" vertex="1" parent="97">
                    <mxGeometry x="474" y="190" width="120" height="60" as="geometry"/>
                </mxCell>
                <mxCell id="110" value="Auth + get role" style="edgeStyle=orthogonalEdgeStyle;rounded=0;orthogonalLoop=1;jettySize=auto;html=1;" edge="1" parent="1" source="98" target="97">
                    <mxGeometry relative="1" as="geometry">
                        <Array as="points">
                            <mxPoint x="730" y="300"/>
                            <mxPoint x="730" y="300"/>
                        </Array>
                    </mxGeometry>
                </mxCell>
                <mxCell id="115" value="" style="edgeStyle=orthogonalEdgeStyle;rounded=0;orthogonalLoop=1;jettySize=auto;html=1;dashed=1;fillColor=#d5e8d4;strokeColor=#82b366;strokeWidth=3;" edge="1" parent="1" source="135" target="108">
                    <mxGeometry relative="1" as="geometry">
                        <Array as="points">
                            <mxPoint x="1310" y="510"/>
                            <mxPoint x="1310" y="510"/>
                        </Array>
                    </mxGeometry>
                </mxCell>
                <mxCell id="117" value="" style="edgeStyle=orthogonalEdgeStyle;rounded=0;orthogonalLoop=1;jettySize=auto;html=1;dashed=1;fillColor=#d5e8d4;strokeColor=#82b366;strokeWidth=3;" edge="1" parent="1" source="136" target="108">
                    <mxGeometry relative="1" as="geometry">
                        <Array as="points">
                            <mxPoint x="1164" y="520"/>
                            <mxPoint x="1164" y="520"/>
                        </Array>
                    </mxGeometry>
                </mxCell>
                <mxCell id="119" value="" style="edgeStyle=orthogonalEdgeStyle;rounded=0;orthogonalLoop=1;jettySize=auto;html=1;dashed=1;fillColor=#d5e8d4;strokeColor=#82b366;strokeWidth=3;" edge="1" parent="1" source="136" target="109">
                    <mxGeometry relative="1" as="geometry">
                        <Array as="points">
                            <mxPoint x="860" y="420"/>
                            <mxPoint x="860" y="850"/>
                        </Array>
                    </mxGeometry>
                </mxCell>
                <mxCell id="98" value="Task Tracker service" style="swimlane;horizontal=0;" vertex="1" parent="1">
                    <mxGeometry x="1060" y="150" width="730" height="310" as="geometry"/>
                </mxCell>
                <mxCell id="95" value="Task Tracker" style="swimlane;" vertex="1" parent="98">
                    <mxGeometry x="44" y="20" width="630" height="200" as="geometry"/>
                </mxCell>
                <mxCell id="39" value="Task" style="rounded=0;whiteSpace=wrap;html=1;" vertex="1" parent="95">
                    <mxGeometry x="214" y="85" width="120" height="60" as="geometry"/>
                </mxCell>
                <mxCell id="40" value="Pricing" style="rounded=0;whiteSpace=wrap;html=1;" vertex="1" parent="95">
                    <mxGeometry x="414" y="120" width="120" height="60" as="geometry"/>
                </mxCell>
                <mxCell id="37" value="" style="edgeStyle=orthogonalEdgeStyle;rounded=0;orthogonalLoop=1;jettySize=auto;html=1;" edge="1" parent="95" source="39" target="40">
                    <mxGeometry relative="1" as="geometry"/>
                </mxCell>
                <mxCell id="41" value="Status" style="rounded=0;whiteSpace=wrap;html=1;" vertex="1" parent="95">
                    <mxGeometry x="414" y="50" width="120" height="60" as="geometry"/>
                </mxCell>
                <mxCell id="38" value="" style="edgeStyle=orthogonalEdgeStyle;rounded=0;orthogonalLoop=1;jettySize=auto;html=1;" edge="1" parent="95" source="39" target="41">
                    <mxGeometry relative="1" as="geometry"/>
                </mxCell>
                <mxCell id="42" value="Account" style="rounded=0;whiteSpace=wrap;html=1;" vertex="1" parent="95">
                    <mxGeometry x="14" y="85" width="120" height="60" as="geometry"/>
                </mxCell>
                <mxCell id="43" value="" style="edgeStyle=orthogonalEdgeStyle;rounded=0;orthogonalLoop=1;jettySize=auto;html=1;" edge="1" parent="95" source="39" target="42">
                    <mxGeometry relative="1" as="geometry">
                        <mxPoint x="224" y="-5" as="sourcePoint"/>
                        <mxPoint x="144" y="-5" as="targetPoint"/>
                    </mxGeometry>
                </mxCell>
                <mxCell id="136" value="Task completed" style="rounded=0;whiteSpace=wrap;html=1;strokeColor=#82b366;dashed=1;strokeWidth=3;fillColor=none;" vertex="1" parent="98">
                    <mxGeometry x="44" y="240" width="120" height="60" as="geometry"/>
                </mxCell>
                <mxCell id="135" value="Task assigned" style="rounded=0;whiteSpace=wrap;html=1;strokeColor=#82b366;dashed=1;strokeWidth=3;fillColor=none;" vertex="1" parent="98">
                    <mxGeometry x="190" y="240" width="120" height="60" as="geometry"/>
                </mxCell>
                <mxCell id="111" value="Auth + get role" style="edgeStyle=orthogonalEdgeStyle;rounded=0;orthogonalLoop=1;jettySize=auto;html=1;" edge="1" parent="1" source="108" target="97">
                    <mxGeometry relative="1" as="geometry">
                        <Array as="points">
                            <mxPoint x="355" y="570"/>
                        </Array>
                    </mxGeometry>
                </mxCell>
                <mxCell id="113" value="Send email" style="edgeStyle=orthogonalEdgeStyle;rounded=0;orthogonalLoop=1;jettySize=auto;html=1;" edge="1" parent="1" source="108" target="90">
                    <mxGeometry relative="1" as="geometry"/>
                </mxCell>
                <mxCell id="120" value="" style="edgeStyle=orthogonalEdgeStyle;rounded=0;orthogonalLoop=1;jettySize=auto;html=1;dashed=1;fillColor=#d5e8d4;strokeColor=#82b366;strokeWidth=3;" edge="1" parent="1" source="137" target="109">
                    <mxGeometry relative="1" as="geometry">
                        <Array as="points">
                            <mxPoint x="830" y="940"/>
                            <mxPoint x="830" y="940"/>
                        </Array>
                    </mxGeometry>
                </mxCell>
                <mxCell id="108" value="Accounting service" style="swimlane;horizontal=0;" vertex="1" parent="1">
                    <mxGeometry x="1060" y="560" width="750" height="430" as="geometry"/>
                </mxCell>
                <mxCell id="91" value="Accounting" style="swimlane;" vertex="1" parent="108">
                    <mxGeometry x="40" y="20" width="690" height="250" as="geometry"/>
                </mxCell>
                <mxCell id="45" value="Transaction Log" style="rounded=0;whiteSpace=wrap;html=1;" vertex="1" parent="91">
                    <mxGeometry x="210" y="150" width="120" height="60" as="geometry"/>
                </mxCell>
                <mxCell id="46" value="Balance" style="rounded=0;whiteSpace=wrap;html=1;" vertex="1" parent="91">
                    <mxGeometry x="30" y="50" width="120" height="60" as="geometry"/>
                </mxCell>
                <mxCell id="47" value="Account" style="rounded=0;whiteSpace=wrap;html=1;" vertex="1" parent="91">
                    <mxGeometry x="210" y="50" width="120" height="60" as="geometry"/>
                </mxCell>
                <mxCell id="44" value="" style="edgeStyle=orthogonalEdgeStyle;rounded=0;orthogonalLoop=1;jettySize=auto;html=1;" edge="1" parent="91" source="47" target="46">
                    <mxGeometry relative="1" as="geometry"/>
                </mxCell>
                <mxCell id="50" value="" style="edgeStyle=orthogonalEdgeStyle;rounded=0;orthogonalLoop=1;jettySize=auto;html=1;" edge="1" parent="91" source="47" target="45">
                    <mxGeometry relative="1" as="geometry">
                        <mxPoint x="240" y="60" as="sourcePoint"/>
                        <mxPoint x="150" y="190" as="targetPoint"/>
                    </mxGeometry>
                </mxCell>
                <mxCell id="55" value="Payment" style="rounded=0;whiteSpace=wrap;html=1;" vertex="1" parent="91">
                    <mxGeometry x="370" y="150" width="120" height="60" as="geometry"/>
                </mxCell>
                <mxCell id="61" style="edgeStyle=orthogonalEdgeStyle;rounded=0;orthogonalLoop=1;jettySize=auto;html=1;" edge="1" parent="91" source="45" target="55">
                    <mxGeometry relative="1" as="geometry"/>
                </mxCell>
                <mxCell id="56" value="Email report" style="rounded=0;whiteSpace=wrap;html=1;" vertex="1" parent="91">
                    <mxGeometry x="530" y="150" width="120" height="60" as="geometry"/>
                </mxCell>
                <mxCell id="54" value="" style="edgeStyle=orthogonalEdgeStyle;rounded=0;orthogonalLoop=1;jettySize=auto;html=1;" edge="1" parent="91" source="56" target="55">
                    <mxGeometry relative="1" as="geometry">
                        <mxPoint x="390" y="380" as="targetPoint"/>
                    </mxGeometry>
                </mxCell>
                <mxCell id="57" value="Task (snapshot)" style="rounded=0;whiteSpace=wrap;html=1;" vertex="1" parent="91">
                    <mxGeometry x="30" y="150" width="120" height="60" as="geometry"/>
                </mxCell>
                <mxCell id="59" value="" style="edgeStyle=orthogonalEdgeStyle;rounded=0;orthogonalLoop=1;jettySize=auto;html=1;" edge="1" parent="91" source="45" target="57">
                    <mxGeometry relative="1" as="geometry">
                        <mxPoint x="150" y="80" as="sourcePoint"/>
                        <mxPoint x="280" y="160" as="targetPoint"/>
                    </mxGeometry>
                </mxCell>
                <mxCell id="87" value="Payment provider integration" style="swimlane;" vertex="1" parent="108">
                    <mxGeometry x="170" y="280" width="370" height="130" as="geometry"/>
                </mxCell>
                <mxCell id="70" value="Payment" style="rounded=0;whiteSpace=wrap;html=1;" vertex="1" parent="87">
                    <mxGeometry x="50" y="45" width="120" height="60" as="geometry"/>
                </mxCell>
                <mxCell id="72" value="3rd party payment provider integration data" style="rounded=0;whiteSpace=wrap;html=1;" vertex="1" parent="87">
                    <mxGeometry x="210" y="45" width="120" height="60" as="geometry"/>
                </mxCell>
                <mxCell id="73" value="" style="edgeStyle=orthogonalEdgeStyle;rounded=0;orthogonalLoop=1;jettySize=auto;html=1;" edge="1" parent="87" source="70" target="72">
                    <mxGeometry relative="1" as="geometry"/>
                </mxCell>
                <mxCell id="137" value="Balance updated" style="rounded=0;whiteSpace=wrap;html=1;strokeColor=#82b366;dashed=1;strokeWidth=3;fillColor=none;" vertex="1" parent="108">
                    <mxGeometry x="40" y="350" width="120" height="60" as="geometry"/>
                </mxCell>
                <mxCell id="112" value="Auth + get role" style="edgeStyle=orthogonalEdgeStyle;rounded=0;orthogonalLoop=1;jettySize=auto;html=1;" edge="1" parent="1" source="109" target="97">
                    <mxGeometry relative="1" as="geometry">
                        <Array as="points">
                            <mxPoint x="200" y="580"/>
                            <mxPoint x="200" y="580"/>
                        </Array>
                    </mxGeometry>
                </mxCell>
                <mxCell id="109" value="Analytics service" style="swimlane;horizontal=0;" vertex="1" parent="1">
                    <mxGeometry x="64" y="750" width="470" height="260" as="geometry"/>
                </mxCell>
                <mxCell id="86" value="Analytics" style="swimlane;" vertex="1" parent="109">
                    <mxGeometry x="44" y="19" width="410" height="230" as="geometry"/>
                </mxCell>
                <mxCell id="78" value="Account" style="rounded=0;whiteSpace=wrap;html=1;" vertex="1" parent="86">
                    <mxGeometry x="60" y="150" width="120" height="60" as="geometry"/>
                </mxCell>
                <mxCell id="79" value="Balance" style="rounded=0;whiteSpace=wrap;html=1;" vertex="1" parent="86">
                    <mxGeometry x="230" y="150" width="120" height="60" as="geometry"/>
                </mxCell>
                <mxCell id="82" style="edgeStyle=orthogonalEdgeStyle;rounded=0;orthogonalLoop=1;jettySize=auto;html=1;" edge="1" parent="86" source="78" target="79">
                    <mxGeometry relative="1" as="geometry"/>
                </mxCell>
                <mxCell id="80" value="Task" style="rounded=0;whiteSpace=wrap;html=1;" vertex="1" parent="86">
                    <mxGeometry x="60" y="50" width="120" height="60" as="geometry"/>
                </mxCell>
                <mxCell id="81" value="Pricing" style="rounded=0;whiteSpace=wrap;html=1;" vertex="1" parent="86">
                    <mxGeometry x="230" y="50" width="120" height="60" as="geometry"/>
                </mxCell>
                <mxCell id="85" style="edgeStyle=orthogonalEdgeStyle;rounded=0;orthogonalLoop=1;jettySize=auto;html=1;" edge="1" parent="86" source="80" target="81">
                    <mxGeometry relative="1" as="geometry"/>
                </mxCell>
                <mxCell id="123" value="CUD event" style="edgeStyle=orthogonalEdgeStyle;rounded=0;orthogonalLoop=1;jettySize=auto;html=1;dashed=1;fillColor=#ffe6cc;strokeColor=#d79b00;dashPattern=1 1;strokeWidth=3;" edge="1" parent="1">
                    <mxGeometry relative="1" as="geometry">
                        <mxPoint x="640" y="40" as="sourcePoint"/>
                        <mxPoint x="950" y="40" as="targetPoint"/>
                    </mxGeometry>
                </mxCell>
                <mxCell id="124" value="Business event" style="edgeStyle=orthogonalEdgeStyle;rounded=0;orthogonalLoop=1;jettySize=auto;html=1;dashed=1;fillColor=#d5e8d4;strokeColor=#82b366;strokeWidth=3;" edge="1" parent="1">
                    <mxGeometry relative="1" as="geometry">
                        <mxPoint x="640" y="80" as="sourcePoint"/>
                        <mxPoint x="955" y="80" as="targetPoint"/>
                    </mxGeometry>
                </mxCell>
                <mxCell id="128" value="Sync call" style="endArrow=classic;html=1;strokeWidth=1;" edge="1" parent="1">
                    <mxGeometry width="50" height="50" relative="1" as="geometry">
                        <mxPoint x="640" y="120" as="sourcePoint"/>
                        <mxPoint x="960" y="120" as="targetPoint"/>
                    </mxGeometry>
                </mxCell>
                <mxCell id="132" style="edgeStyle=orthogonalEdgeStyle;rounded=0;orthogonalLoop=1;jettySize=auto;html=1;strokeWidth=3;fillColor=#ffe6cc;strokeColor=#d79b00;dashed=1;dashPattern=1 1;" edge="1" parent="1" source="130" target="98">
                    <mxGeometry relative="1" as="geometry">
                        <Array as="points">
                            <mxPoint x="760" y="360"/>
                            <mxPoint x="760" y="360"/>
                        </Array>
                    </mxGeometry>
                </mxCell>
                <mxCell id="133" style="edgeStyle=orthogonalEdgeStyle;rounded=0;orthogonalLoop=1;jettySize=auto;html=1;dashed=1;dashPattern=1 1;strokeWidth=3;fillColor=#ffe6cc;strokeColor=#d79b00;" edge="1" parent="1" source="130" target="109">
                    <mxGeometry relative="1" as="geometry">
                        <Array as="points">
                            <mxPoint x="594" y="670"/>
                            <mxPoint x="299" y="670"/>
                        </Array>
                    </mxGeometry>
                </mxCell>
                <mxCell id="134" style="edgeStyle=orthogonalEdgeStyle;rounded=0;orthogonalLoop=1;jettySize=auto;html=1;dashed=1;dashPattern=1 1;strokeWidth=3;fillColor=#ffe6cc;strokeColor=#d79b00;" edge="1" parent="1" source="130" target="108">
                    <mxGeometry relative="1" as="geometry">
                        <Array as="points">
                            <mxPoint x="594" y="670"/>
                        </Array>
                    </mxGeometry>
                </mxCell>
            </root>
        </mxGraphModel>
    </diagram>
</mxfile>